<mxfile host="app.diagrams.net" modified="2023-08-11T03:57:44.591Z" agent="Mozilla/5.0 (Windows NT 10.0; Win64; x64) AppleWebKit/537.36 (KHTML, like Gecko) Chrome/115.0.0.0 Safari/537.36" version="21.6.8" etag="6FVX8DSfuL9iqD_wmAlg" type="github">
  <diagram name="Page-1" id="r_wByRYJiJi0Lt3oQV3X">
    <mxGraphModel>
      <root>
        <mxCell id="0" />
        <mxCell id="1" parent="0" />
      </root>
    </mxGraphModel>
  </diagram>
</mxfile>
